<svg width="134" height="134" viewBox="0 0 134 134" fill="none" xmlns="http://www.w3.org/2000/svg">
<mask id="path-1-inside-1_62_461" fill="white">
<path d="M134 67C134 104.003 104.003 134 67 134C29.9969 134 0 104.003 0 67C0 29.9969 29.9969 0 67 0C104.003 0 134 29.9969 134 67ZM17.7611 67C17.7611 94.1939 39.8061 116.239 67 116.239C94.1939 116.239 116.239 94.1939 116.239 67C116.239 39.8061 94.1939 17.7611 67 17.7611C39.8061 17.7611 17.7611 39.8061 17.7611 67Z"/>
</mask>
<path d="M134 67C134 104.003 104.003 134 67 134C29.9969 134 0 104.003 0 67C0 29.9969 29.9969 0 67 0C104.003 0 134 29.9969 134 67ZM17.7611 67C17.7611 94.1939 39.8061 116.239 67 116.239C94.1939 116.239 116.239 94.1939 116.239 67C116.239 39.8061 94.1939 17.7611 67 17.7611C39.8061 17.7611 17.7611 39.8061 17.7611 67Z" stroke="#312E2E" stroke-width="2" mask="url(#path-1-inside-1_62_461)"/>
<rect x="41.031" y="36.876" width="51.938" height="15.5814" fill="#434F46"/>
<rect x="74.7906" y="45.186" width="51.938" height="15.5814" transform="rotate(90 74.7906 45.186)" fill="#434F46"/>
<path d="M66.5 123L67.1684 125.342L69.5311 124.75L67.8369 126.5L69.5311 128.25L67.1684 127.658L66.5 130L65.8316 127.658L63.4689 128.25L65.1631 126.5L63.4689 124.75L65.8316 125.342L66.5 123Z" fill="#434F46"/>
<path d="M26.9423 105.391L25.5748 107.765L27.9041 109.209L25.1638 109.212L25.0782 111.951L23.7053 109.58L21.2904 110.875L22.6579 108.5L20.3286 107.057L23.0689 107.053L23.1545 104.314L24.5274 106.686L26.9423 105.391Z" fill="#434F46"/>
<path d="M26.088 29.5099L23.6446 28.2692L22.3254 30.6712L22.1782 27.9348L19.4385 27.9933L21.7347 26.4976L20.3141 24.1542L22.7575 25.3949L24.0767 22.993L24.2239 25.7294L26.9636 25.6709L24.6675 27.1665L26.088 29.5099Z" fill="#434F46"/>
<path d="M66.5 4L67.1684 6.34223L69.5311 5.75L67.8369 7.5L69.5311 9.25L67.1684 8.65777L66.5 11L65.8316 8.65777L63.4689 9.25L65.1631 7.5L63.4689 5.75L65.8316 6.34223L66.5 4Z" fill="#434F46"/>
<path d="M111.719 23.1251L110.352 25.4999L112.681 26.9435L109.941 26.9467L109.855 29.6857L108.482 27.3141L106.068 28.6095L107.435 26.2347L105.106 24.7911L107.846 24.7879L107.932 22.0489L109.305 24.4205L111.719 23.1251Z" fill="#434F46"/>
<path d="M112.696 109.846L110.252 108.605L108.933 111.007L108.786 108.271L106.046 108.329L108.342 106.834L106.922 104.49L109.365 105.731L110.685 103.329L110.832 106.065L113.571 106.007L111.275 107.503L112.696 109.846Z" fill="#434F46"/>
<path d="M8.5 63L9.16844 65.6768L11.5311 65L9.83688 67L11.5311 69L9.16844 68.3232L8.5 71L7.83156 68.3232L5.46891 69L7.16312 67L5.46891 65L7.83156 65.6768L8.5 63Z" fill="#434F46"/>
<path d="M126.5 63L127.168 65.6768L129.531 65L127.837 67L129.531 69L127.168 68.3232L126.5 71L125.832 68.3232L123.469 69L125.163 67L123.469 65L125.832 65.6768L126.5 63Z" fill="#434F46"/>
</svg>
